<?xml version="1.0" encoding="utf-8" standalone="no"?>
<!DOCTYPE svg PUBLIC "-//W3C//DTD SVG 1.1//EN"
  "http://www.w3.org/Graphics/SVG/1.1/DTD/svg11.dtd">
<svg xmlns:xlink="http://www.w3.org/1999/xlink" width="504pt" height="504pt" viewBox="0 0 504 504" xmlns="http://www.w3.org/2000/svg" version="1.1">
 <metadata>
  <rdf:RDF xmlns:dc="http://purl.org/dc/elements/1.1/" xmlns:cc="http://creativecommons.org/ns#" xmlns:rdf="http://www.w3.org/1999/02/22-rdf-syntax-ns#">
   <cc:Work>
    <dc:type rdf:resource="http://purl.org/dc/dcmitype/StillImage"/>
    <dc:date>2026-05-02T10:56:40.591881</dc:date>
    <dc:format>image/svg+xml</dc:format>
    <dc:creator>
     <cc:Agent>
      <dc:title>Matplotlib v3.10.8, https://matplotlib.org/</dc:title>
     </cc:Agent>
    </dc:creator>
   </cc:Work>
  </rdf:RDF>
 </metadata>
 <defs>
  <style type="text/css">*{stroke-linejoin: round; stroke-linecap: butt}</style>
 </defs>
 <g id="figure_1">
  <g id="patch_1">
   <path d="M 0 504 
L 504 504 
L 504 0 
L 0 0 
z
" style="fill: #ffffff"/>
  </g>
  <g id="axes_1">
   <g id="patch_2">
    <path d="M 103.068 448.56 
L 413.532 448.56 
L 413.532 60.48 
L 103.068 60.48 
z
" style="fill: #ffffff"/>
   </g>
   <g id="PathCollection_1">
    <defs>
     <path id="ma7de8260ab" d="M 0 3 
C 0.795609 3 1.55874 2.683901 2.12132 2.12132 
C 2.683901 1.55874 3 0.795609 3 0 
C 3 -0.795609 2.683901 -1.55874 2.12132 -2.12132 
C 1.55874 -2.683901 0.795609 -3 0 -3 
C -0.795609 -3 -1.55874 -2.683901 -2.12132 -2.12132 
C -2.683901 -1.55874 -3 -0.795609 -3 0 
C -3 0.795609 -2.683901 1.55874 -2.12132 2.12132 
C -1.55874 2.683901 -0.795609 3 0 3 
z
" style="stroke: #ff0000; stroke-opacity: 0.5"/>
    </defs>
    <g clip-path="url(#p60bf482bdd)">
     <use xlink:href="#ma7de8260ab" x="258.3" y="254.52" style="fill: #ff0000; fill-opacity: 0.5; stroke: #ff0000; stroke-opacity: 0.5"/>
     <use xlink:href="#ma7de8260ab" x="399.42" y="113.4" style="fill: #ff0000; fill-opacity: 0.5; stroke: #ff0000; stroke-opacity: 0.5"/>
     <use xlink:href="#ma7de8260ab" x="399.42" y="395.64" style="fill: #ff0000; fill-opacity: 0.5; stroke: #ff0000; stroke-opacity: 0.5"/>
     <use xlink:href="#ma7de8260ab" x="117.18" y="395.64" style="fill: #ff0000; fill-opacity: 0.5; stroke: #ff0000; stroke-opacity: 0.5"/>
     <use xlink:href="#ma7de8260ab" x="117.18" y="113.4" style="fill: #ff0000; fill-opacity: 0.5; stroke: #ff0000; stroke-opacity: 0.5"/>
     <use xlink:href="#ma7de8260ab" x="258.3" y="254.52" style="fill: #ff0000; fill-opacity: 0.5; stroke: #ff0000; stroke-opacity: 0.5"/>
     <use xlink:href="#ma7de8260ab" x="399.42" y="113.4" style="fill: #ff0000; fill-opacity: 0.5; stroke: #ff0000; stroke-opacity: 0.5"/>
     <use xlink:href="#ma7de8260ab" x="399.42" y="395.64" style="fill: #ff0000; fill-opacity: 0.5; stroke: #ff0000; stroke-opacity: 0.5"/>
     <use xlink:href="#ma7de8260ab" x="117.18" y="395.64" style="fill: #ff0000; fill-opacity: 0.5; stroke: #ff0000; stroke-opacity: 0.5"/>
     <use xlink:href="#ma7de8260ab" x="117.18" y="113.4" style="fill: #ff0000; fill-opacity: 0.5; stroke: #ff0000; stroke-opacity: 0.5"/>
     <use xlink:href="#ma7de8260ab" x="258.3" y="254.52" style="fill: #ff0000; fill-opacity: 0.5; stroke: #ff0000; stroke-opacity: 0.5"/>
     <use xlink:href="#ma7de8260ab" x="399.42" y="113.4" style="fill: #ff0000; fill-opacity: 0.5; stroke: #ff0000; stroke-opacity: 0.5"/>
     <use xlink:href="#ma7de8260ab" x="399.42" y="395.64" style="fill: #ff0000; fill-opacity: 0.5; stroke: #ff0000; stroke-opacity: 0.5"/>
     <use xlink:href="#ma7de8260ab" x="117.18" y="395.64" style="fill: #ff0000; fill-opacity: 0.5; stroke: #ff0000; stroke-opacity: 0.5"/>
     <use xlink:href="#ma7de8260ab" x="117.18" y="113.4" style="fill: #ff0000; fill-opacity: 0.5; stroke: #ff0000; stroke-opacity: 0.5"/>
    </g>
   </g>
   <g id="matplotlib.axis_1">
    <g id="xtick_1">
     <g id="line2d_1">
      <path d="M 151.848414 448.56 
L 151.848414 60.48 
" clip-path="url(#p60bf482bdd)" style="fill: none; stroke: #000000; stroke-opacity: 0.5; stroke-width: 0.8; stroke-linecap: square"/>
     </g>
     <g id="line2d_2">
      <defs>
       <path id="md926c92f96" d="M 0 0 
L 0 3.5 
" style="stroke: #000000; stroke-width: 0.8"/>
      </defs>
      <g>
       <use xlink:href="#md926c92f96" x="151.848414" y="448.56" style="stroke: #000000; stroke-width: 0.8"/>
      </g>
     </g>
     <g id="text_1">
      <!-- 102.88 -->
      <g transform="translate(154.607789 490.550625) rotate(-90) scale(0.1 -0.1)">
       <defs>
        <path id="DejaVuSans-31" d="M 794 531 
L 1825 531 
L 1825 4091 
L 703 3866 
L 703 4441 
L 1819 4666 
L 2450 4666 
L 2450 531 
L 3481 531 
L 3481 0 
L 794 0 
L 794 531 
z
" transform="scale(0.015625)"/>
        <path id="DejaVuSans-30" d="M 2034 4250 
Q 1547 4250 1301 3770 
Q 1056 3291 1056 2328 
Q 1056 1369 1301 889 
Q 1547 409 2034 409 
Q 2525 409 2770 889 
Q 3016 1369 3016 2328 
Q 3016 3291 2770 3770 
Q 2525 4250 2034 4250 
z
M 2034 4750 
Q 2819 4750 3233 4129 
Q 3647 3509 3647 2328 
Q 3647 1150 3233 529 
Q 2819 -91 2034 -91 
Q 1250 -91 836 529 
Q 422 1150 422 2328 
Q 422 3509 836 4129 
Q 1250 4750 2034 4750 
z
" transform="scale(0.015625)"/>
        <path id="DejaVuSans-32" d="M 1228 531 
L 3431 531 
L 3431 0 
L 469 0 
L 469 531 
Q 828 903 1448 1529 
Q 2069 2156 2228 2338 
Q 2531 2678 2651 2914 
Q 2772 3150 2772 3378 
Q 2772 3750 2511 3984 
Q 2250 4219 1831 4219 
Q 1534 4219 1204 4116 
Q 875 4013 500 3803 
L 500 4441 
Q 881 4594 1212 4672 
Q 1544 4750 1819 4750 
Q 2544 4750 2975 4387 
Q 3406 4025 3406 3419 
Q 3406 3131 3298 2873 
Q 3191 2616 2906 2266 
Q 2828 2175 2409 1742 
Q 1991 1309 1228 531 
z
" transform="scale(0.015625)"/>
        <path id="DejaVuSans-2e" d="M 684 794 
L 1344 794 
L 1344 0 
L 684 0 
L 684 794 
z
" transform="scale(0.015625)"/>
        <path id="DejaVuSans-38" d="M 2034 2216 
Q 1584 2216 1326 1975 
Q 1069 1734 1069 1313 
Q 1069 891 1326 650 
Q 1584 409 2034 409 
Q 2484 409 2743 651 
Q 3003 894 3003 1313 
Q 3003 1734 2745 1975 
Q 2488 2216 2034 2216 
z
M 1403 2484 
Q 997 2584 770 2862 
Q 544 3141 544 3541 
Q 544 4100 942 4425 
Q 1341 4750 2034 4750 
Q 2731 4750 3128 4425 
Q 3525 4100 3525 3541 
Q 3525 3141 3298 2862 
Q 3072 2584 2669 2484 
Q 3125 2378 3379 2068 
Q 3634 1759 3634 1313 
Q 3634 634 3220 271 
Q 2806 -91 2034 -91 
Q 1263 -91 848 271 
Q 434 634 434 1313 
Q 434 1759 690 2068 
Q 947 2378 1403 2484 
z
M 1172 3481 
Q 1172 3119 1398 2916 
Q 1625 2713 2034 2713 
Q 2441 2713 2670 2916 
Q 2900 3119 2900 3481 
Q 2900 3844 2670 4047 
Q 2441 4250 2034 4250 
Q 1625 4250 1398 4047 
Q 1172 3844 1172 3481 
z
" transform="scale(0.015625)"/>
       </defs>
       <use xlink:href="#DejaVuSans-31"/>
       <use xlink:href="#DejaVuSans-30" transform="translate(63.623047 0)"/>
       <use xlink:href="#DejaVuSans-32" transform="translate(127.246094 0)"/>
       <use xlink:href="#DejaVuSans-2e" transform="translate(190.869141 0)"/>
       <use xlink:href="#DejaVuSans-38" transform="translate(222.65625 0)"/>
       <use xlink:href="#DejaVuSans-38" transform="translate(286.279297 0)"/>
      </g>
     </g>
    </g>
    <g id="xtick_2">
     <g id="line2d_3">
      <path d="M 214.505694 448.56 
L 214.505694 60.48 
" clip-path="url(#p60bf482bdd)" style="fill: none; stroke: #000000; stroke-opacity: 0.5; stroke-width: 0.8; stroke-linecap: square"/>
     </g>
     <g id="line2d_4">
      <g>
       <use xlink:href="#md926c92f96" x="214.505694" y="448.56" style="stroke: #000000; stroke-width: 0.8"/>
      </g>
     </g>
     <g id="text_2">
      <!-- 102.90 -->
      <g transform="translate(217.265069 490.550625) rotate(-90) scale(0.1 -0.1)">
       <defs>
        <path id="DejaVuSans-39" d="M 703 97 
L 703 672 
Q 941 559 1184 500 
Q 1428 441 1663 441 
Q 2288 441 2617 861 
Q 2947 1281 2994 2138 
Q 2813 1869 2534 1725 
Q 2256 1581 1919 1581 
Q 1219 1581 811 2004 
Q 403 2428 403 3163 
Q 403 3881 828 4315 
Q 1253 4750 1959 4750 
Q 2769 4750 3195 4129 
Q 3622 3509 3622 2328 
Q 3622 1225 3098 567 
Q 2575 -91 1691 -91 
Q 1453 -91 1209 -44 
Q 966 3 703 97 
z
M 1959 2075 
Q 2384 2075 2632 2365 
Q 2881 2656 2881 3163 
Q 2881 3666 2632 3958 
Q 2384 4250 1959 4250 
Q 1534 4250 1286 3958 
Q 1038 3666 1038 3163 
Q 1038 2656 1286 2365 
Q 1534 2075 1959 2075 
z
" transform="scale(0.015625)"/>
       </defs>
       <use xlink:href="#DejaVuSans-31"/>
       <use xlink:href="#DejaVuSans-30" transform="translate(63.623047 0)"/>
       <use xlink:href="#DejaVuSans-32" transform="translate(127.246094 0)"/>
       <use xlink:href="#DejaVuSans-2e" transform="translate(190.869141 0)"/>
       <use xlink:href="#DejaVuSans-39" transform="translate(222.65625 0)"/>
       <use xlink:href="#DejaVuSans-30" transform="translate(286.279297 0)"/>
      </g>
     </g>
    </g>
    <g id="xtick_3">
     <g id="line2d_5">
      <path d="M 277.162974 448.56 
L 277.162974 60.48 
" clip-path="url(#p60bf482bdd)" style="fill: none; stroke: #000000; stroke-opacity: 0.5; stroke-width: 0.8; stroke-linecap: square"/>
     </g>
     <g id="line2d_6">
      <g>
       <use xlink:href="#md926c92f96" x="277.162974" y="448.56" style="stroke: #000000; stroke-width: 0.8"/>
      </g>
     </g>
     <g id="text_3">
      <!-- 102.92 -->
      <g transform="translate(279.922349 490.550625) rotate(-90) scale(0.1 -0.1)">
       <use xlink:href="#DejaVuSans-31"/>
       <use xlink:href="#DejaVuSans-30" transform="translate(63.623047 0)"/>
       <use xlink:href="#DejaVuSans-32" transform="translate(127.246094 0)"/>
       <use xlink:href="#DejaVuSans-2e" transform="translate(190.869141 0)"/>
       <use xlink:href="#DejaVuSans-39" transform="translate(222.65625 0)"/>
       <use xlink:href="#DejaVuSans-32" transform="translate(286.279297 0)"/>
      </g>
     </g>
    </g>
    <g id="xtick_4">
     <g id="line2d_7">
      <path d="M 339.820254 448.56 
L 339.820254 60.48 
" clip-path="url(#p60bf482bdd)" style="fill: none; stroke: #000000; stroke-opacity: 0.5; stroke-width: 0.8; stroke-linecap: square"/>
     </g>
     <g id="line2d_8">
      <g>
       <use xlink:href="#md926c92f96" x="339.820254" y="448.56" style="stroke: #000000; stroke-width: 0.8"/>
      </g>
     </g>
     <g id="text_4">
      <!-- 102.94 -->
      <g transform="translate(342.579629 490.550625) rotate(-90) scale(0.1 -0.1)">
       <defs>
        <path id="DejaVuSans-34" d="M 2419 4116 
L 825 1625 
L 2419 1625 
L 2419 4116 
z
M 2253 4666 
L 3047 4666 
L 3047 1625 
L 3713 1625 
L 3713 1100 
L 3047 1100 
L 3047 0 
L 2419 0 
L 2419 1100 
L 313 1100 
L 313 1709 
L 2253 4666 
z
" transform="scale(0.015625)"/>
       </defs>
       <use xlink:href="#DejaVuSans-31"/>
       <use xlink:href="#DejaVuSans-30" transform="translate(63.623047 0)"/>
       <use xlink:href="#DejaVuSans-32" transform="translate(127.246094 0)"/>
       <use xlink:href="#DejaVuSans-2e" transform="translate(190.869141 0)"/>
       <use xlink:href="#DejaVuSans-39" transform="translate(222.65625 0)"/>
       <use xlink:href="#DejaVuSans-34" transform="translate(286.279297 0)"/>
      </g>
     </g>
    </g>
    <g id="xtick_5">
     <g id="line2d_9">
      <path d="M 402.477534 448.56 
L 402.477534 60.48 
" clip-path="url(#p60bf482bdd)" style="fill: none; stroke: #000000; stroke-opacity: 0.5; stroke-width: 0.8; stroke-linecap: square"/>
     </g>
     <g id="line2d_10">
      <g>
       <use xlink:href="#md926c92f96" x="402.477534" y="448.56" style="stroke: #000000; stroke-width: 0.8"/>
      </g>
     </g>
     <g id="text_5">
      <!-- 102.96 -->
      <g transform="translate(405.236909 490.550625) rotate(-90) scale(0.1 -0.1)">
       <defs>
        <path id="DejaVuSans-36" d="M 2113 2584 
Q 1688 2584 1439 2293 
Q 1191 2003 1191 1497 
Q 1191 994 1439 701 
Q 1688 409 2113 409 
Q 2538 409 2786 701 
Q 3034 994 3034 1497 
Q 3034 2003 2786 2293 
Q 2538 2584 2113 2584 
z
M 3366 4563 
L 3366 3988 
Q 3128 4100 2886 4159 
Q 2644 4219 2406 4219 
Q 1781 4219 1451 3797 
Q 1122 3375 1075 2522 
Q 1259 2794 1537 2939 
Q 1816 3084 2150 3084 
Q 2853 3084 3261 2657 
Q 3669 2231 3669 1497 
Q 3669 778 3244 343 
Q 2819 -91 2113 -91 
Q 1303 -91 875 529 
Q 447 1150 447 2328 
Q 447 3434 972 4092 
Q 1497 4750 2381 4750 
Q 2619 4750 2861 4703 
Q 3103 4656 3366 4563 
z
" transform="scale(0.015625)"/>
       </defs>
       <use xlink:href="#DejaVuSans-31"/>
       <use xlink:href="#DejaVuSans-30" transform="translate(63.623047 0)"/>
       <use xlink:href="#DejaVuSans-32" transform="translate(127.246094 0)"/>
       <use xlink:href="#DejaVuSans-2e" transform="translate(190.869141 0)"/>
       <use xlink:href="#DejaVuSans-39" transform="translate(222.65625 0)"/>
       <use xlink:href="#DejaVuSans-36" transform="translate(286.279297 0)"/>
      </g>
     </g>
    </g>
   </g>
   <g id="matplotlib.axis_2">
    <g id="ytick_1">
     <g id="line2d_11">
      <path d="M 103.068 404.167515 
L 413.532 404.167515 
" clip-path="url(#p60bf482bdd)" style="fill: none; stroke: #000000; stroke-opacity: 0.5; stroke-width: 0.8; stroke-linecap: square"/>
     </g>
     <g id="line2d_12">
      <defs>
       <path id="m44cbd27949" d="M 0 0 
L -3.5 0 
" style="stroke: #000000; stroke-width: 0.8"/>
      </defs>
      <g>
       <use xlink:href="#m44cbd27949" x="103.068" y="404.167515" style="stroke: #000000; stroke-width: 0.8"/>
      </g>
     </g>
     <g id="text_6">
      <!-- 17.22 -->
      <g transform="translate(67.439875 407.966733) scale(0.1 -0.1)">
       <defs>
        <path id="DejaVuSans-37" d="M 525 4666 
L 3525 4666 
L 3525 4397 
L 1831 0 
L 1172 0 
L 2766 4134 
L 525 4134 
L 525 4666 
z
" transform="scale(0.015625)"/>
       </defs>
       <use xlink:href="#DejaVuSans-31"/>
       <use xlink:href="#DejaVuSans-37" transform="translate(63.623047 0)"/>
       <use xlink:href="#DejaVuSans-2e" transform="translate(127.246094 0)"/>
       <use xlink:href="#DejaVuSans-32" transform="translate(159.033203 0)"/>
       <use xlink:href="#DejaVuSans-32" transform="translate(222.65625 0)"/>
      </g>
     </g>
    </g>
    <g id="ytick_2">
     <g id="line2d_13">
      <path d="M 103.068 341.510235 
L 413.532 341.510235 
" clip-path="url(#p60bf482bdd)" style="fill: none; stroke: #000000; stroke-opacity: 0.5; stroke-width: 0.8; stroke-linecap: square"/>
     </g>
     <g id="line2d_14">
      <g>
       <use xlink:href="#m44cbd27949" x="103.068" y="341.510235" style="stroke: #000000; stroke-width: 0.8"/>
      </g>
     </g>
     <g id="text_7">
      <!-- 17.24 -->
      <g transform="translate(67.439875 345.309453) scale(0.1 -0.1)">
       <use xlink:href="#DejaVuSans-31"/>
       <use xlink:href="#DejaVuSans-37" transform="translate(63.623047 0)"/>
       <use xlink:href="#DejaVuSans-2e" transform="translate(127.246094 0)"/>
       <use xlink:href="#DejaVuSans-32" transform="translate(159.033203 0)"/>
       <use xlink:href="#DejaVuSans-34" transform="translate(222.65625 0)"/>
      </g>
     </g>
    </g>
    <g id="ytick_3">
     <g id="line2d_15">
      <path d="M 103.068 278.852955 
L 413.532 278.852955 
" clip-path="url(#p60bf482bdd)" style="fill: none; stroke: #000000; stroke-opacity: 0.5; stroke-width: 0.8; stroke-linecap: square"/>
     </g>
     <g id="line2d_16">
      <g>
       <use xlink:href="#m44cbd27949" x="103.068" y="278.852955" style="stroke: #000000; stroke-width: 0.8"/>
      </g>
     </g>
     <g id="text_8">
      <!-- 17.26 -->
      <g transform="translate(67.439875 282.652173) scale(0.1 -0.1)">
       <use xlink:href="#DejaVuSans-31"/>
       <use xlink:href="#DejaVuSans-37" transform="translate(63.623047 0)"/>
       <use xlink:href="#DejaVuSans-2e" transform="translate(127.246094 0)"/>
       <use xlink:href="#DejaVuSans-32" transform="translate(159.033203 0)"/>
       <use xlink:href="#DejaVuSans-36" transform="translate(222.65625 0)"/>
      </g>
     </g>
    </g>
    <g id="ytick_4">
     <g id="line2d_17">
      <path d="M 103.068 216.195675 
L 413.532 216.195675 
" clip-path="url(#p60bf482bdd)" style="fill: none; stroke: #000000; stroke-opacity: 0.5; stroke-width: 0.8; stroke-linecap: square"/>
     </g>
     <g id="line2d_18">
      <g>
       <use xlink:href="#m44cbd27949" x="103.068" y="216.195675" style="stroke: #000000; stroke-width: 0.8"/>
      </g>
     </g>
     <g id="text_9">
      <!-- 17.28 -->
      <g transform="translate(67.439875 219.994893) scale(0.1 -0.1)">
       <use xlink:href="#DejaVuSans-31"/>
       <use xlink:href="#DejaVuSans-37" transform="translate(63.623047 0)"/>
       <use xlink:href="#DejaVuSans-2e" transform="translate(127.246094 0)"/>
       <use xlink:href="#DejaVuSans-32" transform="translate(159.033203 0)"/>
       <use xlink:href="#DejaVuSans-38" transform="translate(222.65625 0)"/>
      </g>
     </g>
    </g>
    <g id="ytick_5">
     <g id="line2d_19">
      <path d="M 103.068 153.538395 
L 413.532 153.538395 
" clip-path="url(#p60bf482bdd)" style="fill: none; stroke: #000000; stroke-opacity: 0.5; stroke-width: 0.8; stroke-linecap: square"/>
     </g>
     <g id="line2d_20">
      <g>
       <use xlink:href="#m44cbd27949" x="103.068" y="153.538395" style="stroke: #000000; stroke-width: 0.8"/>
      </g>
     </g>
     <g id="text_10">
      <!-- 17.30 -->
      <g transform="translate(67.439875 157.337613) scale(0.1 -0.1)">
       <defs>
        <path id="DejaVuSans-33" d="M 2597 2516 
Q 3050 2419 3304 2112 
Q 3559 1806 3559 1356 
Q 3559 666 3084 287 
Q 2609 -91 1734 -91 
Q 1441 -91 1130 -33 
Q 819 25 488 141 
L 488 750 
Q 750 597 1062 519 
Q 1375 441 1716 441 
Q 2309 441 2620 675 
Q 2931 909 2931 1356 
Q 2931 1769 2642 2001 
Q 2353 2234 1838 2234 
L 1294 2234 
L 1294 2753 
L 1863 2753 
Q 2328 2753 2575 2939 
Q 2822 3125 2822 3475 
Q 2822 3834 2567 4026 
Q 2313 4219 1838 4219 
Q 1578 4219 1281 4162 
Q 984 4106 628 3988 
L 628 4550 
Q 988 4650 1302 4700 
Q 1616 4750 1894 4750 
Q 2613 4750 3031 4423 
Q 3450 4097 3450 3541 
Q 3450 3153 3228 2886 
Q 3006 2619 2597 2516 
z
" transform="scale(0.015625)"/>
       </defs>
       <use xlink:href="#DejaVuSans-31"/>
       <use xlink:href="#DejaVuSans-37" transform="translate(63.623047 0)"/>
       <use xlink:href="#DejaVuSans-2e" transform="translate(127.246094 0)"/>
       <use xlink:href="#DejaVuSans-33" transform="translate(159.033203 0)"/>
       <use xlink:href="#DejaVuSans-30" transform="translate(222.65625 0)"/>
      </g>
     </g>
    </g>
    <g id="ytick_6">
     <g id="line2d_21">
      <path d="M 103.068 90.881115 
L 413.532 90.881115 
" clip-path="url(#p60bf482bdd)" style="fill: none; stroke: #000000; stroke-opacity: 0.5; stroke-width: 0.8; stroke-linecap: square"/>
     </g>
     <g id="line2d_22">
      <g>
       <use xlink:href="#m44cbd27949" x="103.068" y="90.881115" style="stroke: #000000; stroke-width: 0.8"/>
      </g>
     </g>
     <g id="text_11">
      <!-- 17.32 -->
      <g transform="translate(67.439875 94.680333) scale(0.1 -0.1)">
       <use xlink:href="#DejaVuSans-31"/>
       <use xlink:href="#DejaVuSans-37" transform="translate(63.623047 0)"/>
       <use xlink:href="#DejaVuSans-2e" transform="translate(127.246094 0)"/>
       <use xlink:href="#DejaVuSans-33" transform="translate(159.033203 0)"/>
       <use xlink:href="#DejaVuSans-32" transform="translate(222.65625 0)"/>
      </g>
     </g>
    </g>
   </g>
   <g id="LineCollection_1">
    <path d="M 214.505694 430.92 
L 214.505694 78.12 
" clip-path="url(#p60bf482bdd)" style="fill: none; stroke-dasharray: 19.2,4.8,3,4.8; stroke-dashoffset: 0; stroke: #ff0000; stroke-opacity: 0.5; stroke-width: 3"/>
   </g>
   <g id="patch_3">
    <path d="M 103.068 448.56 
L 103.068 60.48 
" style="fill: none; stroke: #000000; stroke-width: 0.8; stroke-linejoin: miter; stroke-linecap: square"/>
   </g>
   <g id="patch_4">
    <path d="M 413.532 448.56 
L 413.532 60.48 
" style="fill: none; stroke: #000000; stroke-width: 0.8; stroke-linejoin: miter; stroke-linecap: square"/>
   </g>
   <g id="patch_5">
    <path d="M 103.068 448.56 
L 413.532 448.56 
" style="fill: none; stroke: #000000; stroke-width: 0.8; stroke-linejoin: miter; stroke-linecap: square"/>
   </g>
   <g id="patch_6">
    <path d="M 103.068 60.48 
L 413.532 60.48 
" style="fill: none; stroke: #000000; stroke-width: 0.8; stroke-linejoin: miter; stroke-linecap: square"/>
   </g>
   <g id="text_12">
    <!-- P0 -->
    <g transform="translate(253.343125 243.290125) scale(0.08 -0.08)">
     <defs>
      <path id="DejaVuSans-50" d="M 1259 4147 
L 1259 2394 
L 2053 2394 
Q 2494 2394 2734 2622 
Q 2975 2850 2975 3272 
Q 2975 3691 2734 3919 
Q 2494 4147 2053 4147 
L 1259 4147 
z
M 628 4666 
L 2053 4666 
Q 2838 4666 3239 4311 
Q 3641 3956 3641 3272 
Q 3641 2581 3239 2228 
Q 2838 1875 2053 1875 
L 1259 1875 
L 1259 0 
L 628 0 
L 628 4666 
z
" transform="scale(0.015625)"/>
     </defs>
     <use xlink:href="#DejaVuSans-50"/>
     <use xlink:href="#DejaVuSans-30" transform="translate(60.302734 0)"/>
    </g>
    <!-- -8 ppm @175m -->
    <g transform="translate(227.263125 252.248375) scale(0.08 -0.08)">
     <defs>
      <path id="DejaVuSans-2d" d="M 313 2009 
L 1997 2009 
L 1997 1497 
L 313 1497 
L 313 2009 
z
" transform="scale(0.015625)"/>
      <path id="DejaVuSans-20" transform="scale(0.015625)"/>
      <path id="DejaVuSans-70" d="M 1159 525 
L 1159 -1331 
L 581 -1331 
L 581 3500 
L 1159 3500 
L 1159 2969 
Q 1341 3281 1617 3432 
Q 1894 3584 2278 3584 
Q 2916 3584 3314 3078 
Q 3713 2572 3713 1747 
Q 3713 922 3314 415 
Q 2916 -91 2278 -91 
Q 1894 -91 1617 61 
Q 1341 213 1159 525 
z
M 3116 1747 
Q 3116 2381 2855 2742 
Q 2594 3103 2138 3103 
Q 1681 3103 1420 2742 
Q 1159 2381 1159 1747 
Q 1159 1113 1420 752 
Q 1681 391 2138 391 
Q 2594 391 2855 752 
Q 3116 1113 3116 1747 
z
" transform="scale(0.015625)"/>
      <path id="DejaVuSans-6d" d="M 3328 2828 
Q 3544 3216 3844 3400 
Q 4144 3584 4550 3584 
Q 5097 3584 5394 3201 
Q 5691 2819 5691 2113 
L 5691 0 
L 5113 0 
L 5113 2094 
Q 5113 2597 4934 2840 
Q 4756 3084 4391 3084 
Q 3944 3084 3684 2787 
Q 3425 2491 3425 1978 
L 3425 0 
L 2847 0 
L 2847 2094 
Q 2847 2600 2669 2842 
Q 2491 3084 2119 3084 
Q 1678 3084 1418 2786 
Q 1159 2488 1159 1978 
L 1159 0 
L 581 0 
L 581 3500 
L 1159 3500 
L 1159 2956 
Q 1356 3278 1631 3431 
Q 1906 3584 2284 3584 
Q 2666 3584 2933 3390 
Q 3200 3197 3328 2828 
z
" transform="scale(0.015625)"/>
      <path id="DejaVuSans-40" d="M 2381 1678 
Q 2381 1231 2603 976 
Q 2825 722 3213 722 
Q 3597 722 3817 978 
Q 4038 1234 4038 1678 
Q 4038 2116 3813 2373 
Q 3588 2631 3206 2631 
Q 2828 2631 2604 2375 
Q 2381 2119 2381 1678 
z
M 4084 744 
Q 3897 503 3655 389 
Q 3413 275 3091 275 
Q 2553 275 2217 664 
Q 1881 1053 1881 1678 
Q 1881 2303 2218 2693 
Q 2556 3084 3091 3084 
Q 3413 3084 3656 2967 
Q 3900 2850 4084 2613 
L 4084 3022 
L 4531 3022 
L 4531 722 
Q 4988 791 5245 1139 
Q 5503 1488 5503 2041 
Q 5503 2375 5404 2669 
Q 5306 2963 5106 3213 
Q 4781 3622 4314 3839 
Q 3847 4056 3297 4056 
Q 2913 4056 2559 3954 
Q 2206 3853 1906 3653 
Q 1416 3334 1139 2817 
Q 863 2300 863 1697 
Q 863 1200 1042 765 
Q 1222 331 1563 0 
Q 1891 -325 2322 -495 
Q 2753 -666 3244 -666 
Q 3647 -666 4036 -530 
Q 4425 -394 4750 -141 
L 5031 -488 
Q 4641 -791 4180 -952 
Q 3719 -1113 3244 -1113 
Q 2666 -1113 2153 -908 
Q 1641 -703 1241 -313 
Q 841 78 631 592 
Q 422 1106 422 1697 
Q 422 2266 634 2781 
Q 847 3297 1241 3688 
Q 1644 4084 2172 4295 
Q 2700 4506 3291 4506 
Q 3953 4506 4520 4234 
Q 5088 3963 5472 3463 
Q 5706 3156 5829 2797 
Q 5953 2438 5953 2053 
Q 5953 1231 5456 756 
Q 4959 281 4084 263 
L 4084 744 
z
" transform="scale(0.015625)"/>
      <path id="DejaVuSans-35" d="M 691 4666 
L 3169 4666 
L 3169 4134 
L 1269 4134 
L 1269 2991 
Q 1406 3038 1543 3061 
Q 1681 3084 1819 3084 
Q 2600 3084 3056 2656 
Q 3513 2228 3513 1497 
Q 3513 744 3044 326 
Q 2575 -91 1722 -91 
Q 1428 -91 1123 -41 
Q 819 9 494 109 
L 494 744 
Q 775 591 1075 516 
Q 1375 441 1709 441 
Q 2250 441 2565 725 
Q 2881 1009 2881 1497 
Q 2881 1984 2565 2268 
Q 2250 2553 1709 2553 
Q 1456 2553 1204 2497 
Q 953 2441 691 2322 
L 691 4666 
z
" transform="scale(0.015625)"/>
     </defs>
     <use xlink:href="#DejaVuSans-2d"/>
     <use xlink:href="#DejaVuSans-38" transform="translate(36.083984 0)"/>
     <use xlink:href="#DejaVuSans-20" transform="translate(99.707031 0)"/>
     <use xlink:href="#DejaVuSans-70" transform="translate(131.494141 0)"/>
     <use xlink:href="#DejaVuSans-70" transform="translate(194.970703 0)"/>
     <use xlink:href="#DejaVuSans-6d" transform="translate(258.447266 0)"/>
     <use xlink:href="#DejaVuSans-20" transform="translate(355.859375 0)"/>
     <use xlink:href="#DejaVuSans-40" transform="translate(387.646484 0)"/>
     <use xlink:href="#DejaVuSans-31" transform="translate(487.646484 0)"/>
     <use xlink:href="#DejaVuSans-37" transform="translate(551.269531 0)"/>
     <use xlink:href="#DejaVuSans-35" transform="translate(614.892578 0)"/>
     <use xlink:href="#DejaVuSans-6d" transform="translate(678.515625 0)"/>
    </g>
    <!-- +0 ppm @125m -->
    <g transform="translate(225.354375 261.206625) scale(0.08 -0.08)">
     <defs>
      <path id="DejaVuSans-2b" d="M 2944 4013 
L 2944 2272 
L 4684 2272 
L 4684 1741 
L 2944 1741 
L 2944 0 
L 2419 0 
L 2419 1741 
L 678 1741 
L 678 2272 
L 2419 2272 
L 2419 4013 
L 2944 4013 
z
" transform="scale(0.015625)"/>
     </defs>
     <use xlink:href="#DejaVuSans-2b"/>
     <use xlink:href="#DejaVuSans-30" transform="translate(83.789062 0)"/>
     <use xlink:href="#DejaVuSans-20" transform="translate(147.412109 0)"/>
     <use xlink:href="#DejaVuSans-70" transform="translate(179.199219 0)"/>
     <use xlink:href="#DejaVuSans-70" transform="translate(242.675781 0)"/>
     <use xlink:href="#DejaVuSans-6d" transform="translate(306.152344 0)"/>
     <use xlink:href="#DejaVuSans-20" transform="translate(403.564453 0)"/>
     <use xlink:href="#DejaVuSans-40" transform="translate(435.351562 0)"/>
     <use xlink:href="#DejaVuSans-31" transform="translate(535.351562 0)"/>
     <use xlink:href="#DejaVuSans-32" transform="translate(598.974609 0)"/>
     <use xlink:href="#DejaVuSans-35" transform="translate(662.597656 0)"/>
     <use xlink:href="#DejaVuSans-6d" transform="translate(726.220703 0)"/>
    </g>
    <!-- +8 ppm @75m -->
    <g transform="translate(227.899375 270.164875) scale(0.08 -0.08)">
     <use xlink:href="#DejaVuSans-2b"/>
     <use xlink:href="#DejaVuSans-38" transform="translate(83.789062 0)"/>
     <use xlink:href="#DejaVuSans-20" transform="translate(147.412109 0)"/>
     <use xlink:href="#DejaVuSans-70" transform="translate(179.199219 0)"/>
     <use xlink:href="#DejaVuSans-70" transform="translate(242.675781 0)"/>
     <use xlink:href="#DejaVuSans-6d" transform="translate(306.152344 0)"/>
     <use xlink:href="#DejaVuSans-20" transform="translate(403.564453 0)"/>
     <use xlink:href="#DejaVuSans-40" transform="translate(435.351562 0)"/>
     <use xlink:href="#DejaVuSans-37" transform="translate(535.351562 0)"/>
     <use xlink:href="#DejaVuSans-35" transform="translate(598.974609 0)"/>
     <use xlink:href="#DejaVuSans-6d" transform="translate(662.597656 0)"/>
    </g>
   </g>
   <g id="text_13">
    <!-- P1 -->
    <g transform="translate(394.463125 102.170125) scale(0.08 -0.08)">
     <use xlink:href="#DejaVuSans-50"/>
     <use xlink:href="#DejaVuSans-31" transform="translate(60.302734 0)"/>
    </g>
    <!-- -7 ppm @175m -->
    <g transform="translate(368.383125 111.128375) scale(0.08 -0.08)">
     <use xlink:href="#DejaVuSans-2d"/>
     <use xlink:href="#DejaVuSans-37" transform="translate(36.083984 0)"/>
     <use xlink:href="#DejaVuSans-20" transform="translate(99.707031 0)"/>
     <use xlink:href="#DejaVuSans-70" transform="translate(131.494141 0)"/>
     <use xlink:href="#DejaVuSans-70" transform="translate(194.970703 0)"/>
     <use xlink:href="#DejaVuSans-6d" transform="translate(258.447266 0)"/>
     <use xlink:href="#DejaVuSans-20" transform="translate(355.859375 0)"/>
     <use xlink:href="#DejaVuSans-40" transform="translate(387.646484 0)"/>
     <use xlink:href="#DejaVuSans-31" transform="translate(487.646484 0)"/>
     <use xlink:href="#DejaVuSans-37" transform="translate(551.269531 0)"/>
     <use xlink:href="#DejaVuSans-35" transform="translate(614.892578 0)"/>
     <use xlink:href="#DejaVuSans-6d" transform="translate(678.515625 0)"/>
    </g>
    <!-- +0 ppm @125m -->
    <g transform="translate(366.474375 120.086625) scale(0.08 -0.08)">
     <use xlink:href="#DejaVuSans-2b"/>
     <use xlink:href="#DejaVuSans-30" transform="translate(83.789062 0)"/>
     <use xlink:href="#DejaVuSans-20" transform="translate(147.412109 0)"/>
     <use xlink:href="#DejaVuSans-70" transform="translate(179.199219 0)"/>
     <use xlink:href="#DejaVuSans-70" transform="translate(242.675781 0)"/>
     <use xlink:href="#DejaVuSans-6d" transform="translate(306.152344 0)"/>
     <use xlink:href="#DejaVuSans-20" transform="translate(403.564453 0)"/>
     <use xlink:href="#DejaVuSans-40" transform="translate(435.351562 0)"/>
     <use xlink:href="#DejaVuSans-31" transform="translate(535.351562 0)"/>
     <use xlink:href="#DejaVuSans-32" transform="translate(598.974609 0)"/>
     <use xlink:href="#DejaVuSans-35" transform="translate(662.597656 0)"/>
     <use xlink:href="#DejaVuSans-6d" transform="translate(726.220703 0)"/>
    </g>
    <!-- +8 ppm @75m -->
    <g transform="translate(369.019375 129.044875) scale(0.08 -0.08)">
     <use xlink:href="#DejaVuSans-2b"/>
     <use xlink:href="#DejaVuSans-38" transform="translate(83.789062 0)"/>
     <use xlink:href="#DejaVuSans-20" transform="translate(147.412109 0)"/>
     <use xlink:href="#DejaVuSans-70" transform="translate(179.199219 0)"/>
     <use xlink:href="#DejaVuSans-70" transform="translate(242.675781 0)"/>
     <use xlink:href="#DejaVuSans-6d" transform="translate(306.152344 0)"/>
     <use xlink:href="#DejaVuSans-20" transform="translate(403.564453 0)"/>
     <use xlink:href="#DejaVuSans-40" transform="translate(435.351562 0)"/>
     <use xlink:href="#DejaVuSans-37" transform="translate(535.351562 0)"/>
     <use xlink:href="#DejaVuSans-35" transform="translate(598.974609 0)"/>
     <use xlink:href="#DejaVuSans-6d" transform="translate(662.597656 0)"/>
    </g>
   </g>
   <g id="text_14">
    <!-- P2 -->
    <g transform="translate(394.463125 384.410125) scale(0.08 -0.08)">
     <use xlink:href="#DejaVuSans-50"/>
     <use xlink:href="#DejaVuSans-32" transform="translate(60.302734 0)"/>
    </g>
    <!-- -7 ppm @175m -->
    <g transform="translate(368.383125 393.368375) scale(0.08 -0.08)">
     <use xlink:href="#DejaVuSans-2d"/>
     <use xlink:href="#DejaVuSans-37" transform="translate(36.083984 0)"/>
     <use xlink:href="#DejaVuSans-20" transform="translate(99.707031 0)"/>
     <use xlink:href="#DejaVuSans-70" transform="translate(131.494141 0)"/>
     <use xlink:href="#DejaVuSans-70" transform="translate(194.970703 0)"/>
     <use xlink:href="#DejaVuSans-6d" transform="translate(258.447266 0)"/>
     <use xlink:href="#DejaVuSans-20" transform="translate(355.859375 0)"/>
     <use xlink:href="#DejaVuSans-40" transform="translate(387.646484 0)"/>
     <use xlink:href="#DejaVuSans-31" transform="translate(487.646484 0)"/>
     <use xlink:href="#DejaVuSans-37" transform="translate(551.269531 0)"/>
     <use xlink:href="#DejaVuSans-35" transform="translate(614.892578 0)"/>
     <use xlink:href="#DejaVuSans-6d" transform="translate(678.515625 0)"/>
    </g>
    <!-- +0 ppm @125m -->
    <g transform="translate(366.474375 402.326625) scale(0.08 -0.08)">
     <use xlink:href="#DejaVuSans-2b"/>
     <use xlink:href="#DejaVuSans-30" transform="translate(83.789062 0)"/>
     <use xlink:href="#DejaVuSans-20" transform="translate(147.412109 0)"/>
     <use xlink:href="#DejaVuSans-70" transform="translate(179.199219 0)"/>
     <use xlink:href="#DejaVuSans-70" transform="translate(242.675781 0)"/>
     <use xlink:href="#DejaVuSans-6d" transform="translate(306.152344 0)"/>
     <use xlink:href="#DejaVuSans-20" transform="translate(403.564453 0)"/>
     <use xlink:href="#DejaVuSans-40" transform="translate(435.351562 0)"/>
     <use xlink:href="#DejaVuSans-31" transform="translate(535.351562 0)"/>
     <use xlink:href="#DejaVuSans-32" transform="translate(598.974609 0)"/>
     <use xlink:href="#DejaVuSans-35" transform="translate(662.597656 0)"/>
     <use xlink:href="#DejaVuSans-6d" transform="translate(726.220703 0)"/>
    </g>
    <!-- +8 ppm @75m -->
    <g transform="translate(369.019375 411.284875) scale(0.08 -0.08)">
     <use xlink:href="#DejaVuSans-2b"/>
     <use xlink:href="#DejaVuSans-38" transform="translate(83.789062 0)"/>
     <use xlink:href="#DejaVuSans-20" transform="translate(147.412109 0)"/>
     <use xlink:href="#DejaVuSans-70" transform="translate(179.199219 0)"/>
     <use xlink:href="#DejaVuSans-70" transform="translate(242.675781 0)"/>
     <use xlink:href="#DejaVuSans-6d" transform="translate(306.152344 0)"/>
     <use xlink:href="#DejaVuSans-20" transform="translate(403.564453 0)"/>
     <use xlink:href="#DejaVuSans-40" transform="translate(435.351562 0)"/>
     <use xlink:href="#DejaVuSans-37" transform="translate(535.351562 0)"/>
     <use xlink:href="#DejaVuSans-35" transform="translate(598.974609 0)"/>
     <use xlink:href="#DejaVuSans-6d" transform="translate(662.597656 0)"/>
    </g>
   </g>
   <g id="text_15">
    <!-- P3 -->
    <g transform="translate(112.223125 384.410125) scale(0.08 -0.08)">
     <use xlink:href="#DejaVuSans-50"/>
     <use xlink:href="#DejaVuSans-33" transform="translate(60.302734 0)"/>
    </g>
    <!-- -8 ppm @175m -->
    <g transform="translate(86.143125 393.368375) scale(0.08 -0.08)">
     <use xlink:href="#DejaVuSans-2d"/>
     <use xlink:href="#DejaVuSans-38" transform="translate(36.083984 0)"/>
     <use xlink:href="#DejaVuSans-20" transform="translate(99.707031 0)"/>
     <use xlink:href="#DejaVuSans-70" transform="translate(131.494141 0)"/>
     <use xlink:href="#DejaVuSans-70" transform="translate(194.970703 0)"/>
     <use xlink:href="#DejaVuSans-6d" transform="translate(258.447266 0)"/>
     <use xlink:href="#DejaVuSans-20" transform="translate(355.859375 0)"/>
     <use xlink:href="#DejaVuSans-40" transform="translate(387.646484 0)"/>
     <use xlink:href="#DejaVuSans-31" transform="translate(487.646484 0)"/>
     <use xlink:href="#DejaVuSans-37" transform="translate(551.269531 0)"/>
     <use xlink:href="#DejaVuSans-35" transform="translate(614.892578 0)"/>
     <use xlink:href="#DejaVuSans-6d" transform="translate(678.515625 0)"/>
    </g>
    <!-- +0 ppm @125m -->
    <g transform="translate(84.234375 402.326625) scale(0.08 -0.08)">
     <use xlink:href="#DejaVuSans-2b"/>
     <use xlink:href="#DejaVuSans-30" transform="translate(83.789062 0)"/>
     <use xlink:href="#DejaVuSans-20" transform="translate(147.412109 0)"/>
     <use xlink:href="#DejaVuSans-70" transform="translate(179.199219 0)"/>
     <use xlink:href="#DejaVuSans-70" transform="translate(242.675781 0)"/>
     <use xlink:href="#DejaVuSans-6d" transform="translate(306.152344 0)"/>
     <use xlink:href="#DejaVuSans-20" transform="translate(403.564453 0)"/>
     <use xlink:href="#DejaVuSans-40" transform="translate(435.351562 0)"/>
     <use xlink:href="#DejaVuSans-31" transform="translate(535.351562 0)"/>
     <use xlink:href="#DejaVuSans-32" transform="translate(598.974609 0)"/>
     <use xlink:href="#DejaVuSans-35" transform="translate(662.597656 0)"/>
     <use xlink:href="#DejaVuSans-6d" transform="translate(726.220703 0)"/>
    </g>
    <!-- +8 ppm @75m -->
    <g transform="translate(86.779375 411.284875) scale(0.08 -0.08)">
     <use xlink:href="#DejaVuSans-2b"/>
     <use xlink:href="#DejaVuSans-38" transform="translate(83.789062 0)"/>
     <use xlink:href="#DejaVuSans-20" transform="translate(147.412109 0)"/>
     <use xlink:href="#DejaVuSans-70" transform="translate(179.199219 0)"/>
     <use xlink:href="#DejaVuSans-70" transform="translate(242.675781 0)"/>
     <use xlink:href="#DejaVuSans-6d" transform="translate(306.152344 0)"/>
     <use xlink:href="#DejaVuSans-20" transform="translate(403.564453 0)"/>
     <use xlink:href="#DejaVuSans-40" transform="translate(435.351562 0)"/>
     <use xlink:href="#DejaVuSans-37" transform="translate(535.351562 0)"/>
     <use xlink:href="#DejaVuSans-35" transform="translate(598.974609 0)"/>
     <use xlink:href="#DejaVuSans-6d" transform="translate(662.597656 0)"/>
    </g>
   </g>
   <g id="text_16">
    <!-- P4 -->
    <g transform="translate(112.223125 102.170125) scale(0.08 -0.08)">
     <use xlink:href="#DejaVuSans-50"/>
     <use xlink:href="#DejaVuSans-34" transform="translate(60.302734 0)"/>
    </g>
    <!-- -8 ppm @175m -->
    <g transform="translate(86.143125 111.128375) scale(0.08 -0.08)">
     <use xlink:href="#DejaVuSans-2d"/>
     <use xlink:href="#DejaVuSans-38" transform="translate(36.083984 0)"/>
     <use xlink:href="#DejaVuSans-20" transform="translate(99.707031 0)"/>
     <use xlink:href="#DejaVuSans-70" transform="translate(131.494141 0)"/>
     <use xlink:href="#DejaVuSans-70" transform="translate(194.970703 0)"/>
     <use xlink:href="#DejaVuSans-6d" transform="translate(258.447266 0)"/>
     <use xlink:href="#DejaVuSans-20" transform="translate(355.859375 0)"/>
     <use xlink:href="#DejaVuSans-40" transform="translate(387.646484 0)"/>
     <use xlink:href="#DejaVuSans-31" transform="translate(487.646484 0)"/>
     <use xlink:href="#DejaVuSans-37" transform="translate(551.269531 0)"/>
     <use xlink:href="#DejaVuSans-35" transform="translate(614.892578 0)"/>
     <use xlink:href="#DejaVuSans-6d" transform="translate(678.515625 0)"/>
    </g>
    <!-- +0 ppm @125m -->
    <g transform="translate(84.234375 120.086625) scale(0.08 -0.08)">
     <use xlink:href="#DejaVuSans-2b"/>
     <use xlink:href="#DejaVuSans-30" transform="translate(83.789062 0)"/>
     <use xlink:href="#DejaVuSans-20" transform="translate(147.412109 0)"/>
     <use xlink:href="#DejaVuSans-70" transform="translate(179.199219 0)"/>
     <use xlink:href="#DejaVuSans-70" transform="translate(242.675781 0)"/>
     <use xlink:href="#DejaVuSans-6d" transform="translate(306.152344 0)"/>
     <use xlink:href="#DejaVuSans-20" transform="translate(403.564453 0)"/>
     <use xlink:href="#DejaVuSans-40" transform="translate(435.351562 0)"/>
     <use xlink:href="#DejaVuSans-31" transform="translate(535.351562 0)"/>
     <use xlink:href="#DejaVuSans-32" transform="translate(598.974609 0)"/>
     <use xlink:href="#DejaVuSans-35" transform="translate(662.597656 0)"/>
     <use xlink:href="#DejaVuSans-6d" transform="translate(726.220703 0)"/>
    </g>
    <!-- +8 ppm @75m -->
    <g transform="translate(86.779375 129.044875) scale(0.08 -0.08)">
     <use xlink:href="#DejaVuSans-2b"/>
     <use xlink:href="#DejaVuSans-38" transform="translate(83.789062 0)"/>
     <use xlink:href="#DejaVuSans-20" transform="translate(147.412109 0)"/>
     <use xlink:href="#DejaVuSans-70" transform="translate(179.199219 0)"/>
     <use xlink:href="#DejaVuSans-70" transform="translate(242.675781 0)"/>
     <use xlink:href="#DejaVuSans-6d" transform="translate(306.152344 0)"/>
     <use xlink:href="#DejaVuSans-20" transform="translate(403.564453 0)"/>
     <use xlink:href="#DejaVuSans-40" transform="translate(435.351562 0)"/>
     <use xlink:href="#DejaVuSans-37" transform="translate(535.351562 0)"/>
     <use xlink:href="#DejaVuSans-35" transform="translate(598.974609 0)"/>
     <use xlink:href="#DejaVuSans-6d" transform="translate(662.597656 0)"/>
    </g>
   </g>
   <g id="text_17">
    <!-- C.M. -->
    <g style="fill: #ff0000" transform="translate(196.931944 258.935) scale(0.16 -0.16)">
     <defs>
      <path id="DejaVuSans-43" d="M 4122 4306 
L 4122 3641 
Q 3803 3938 3442 4084 
Q 3081 4231 2675 4231 
Q 1875 4231 1450 3742 
Q 1025 3253 1025 2328 
Q 1025 1406 1450 917 
Q 1875 428 2675 428 
Q 3081 428 3442 575 
Q 3803 722 4122 1019 
L 4122 359 
Q 3791 134 3420 21 
Q 3050 -91 2638 -91 
Q 1578 -91 968 557 
Q 359 1206 359 2328 
Q 359 3453 968 4101 
Q 1578 4750 2638 4750 
Q 3056 4750 3426 4639 
Q 3797 4528 4122 4306 
z
" transform="scale(0.015625)"/>
      <path id="DejaVuSans-4d" d="M 628 4666 
L 1569 4666 
L 2759 1491 
L 3956 4666 
L 4897 4666 
L 4897 0 
L 4281 0 
L 4281 4097 
L 3078 897 
L 2444 897 
L 1241 4097 
L 1241 0 
L 628 0 
L 628 4666 
z
" transform="scale(0.015625)"/>
     </defs>
     <use xlink:href="#DejaVuSans-43"/>
     <use xlink:href="#DejaVuSans-2e" transform="translate(69.824219 0)"/>
     <use xlink:href="#DejaVuSans-4d" transform="translate(101.611328 0)"/>
     <use xlink:href="#DejaVuSans-2e" transform="translate(187.890625 0)"/>
    </g>
   </g>
   <g id="text_18">
    <!-- +proj=tmerc +lat_0=0.0 +lon_0=102.9 +k_0=1.000015 +x_0=4000 +y_0=-1905000 -->
    <g transform="translate(63.395859 44.151656) scale(0.09 -0.09)">
     <defs>
      <path id="DejaVuSans-72" d="M 2631 2963 
Q 2534 3019 2420 3045 
Q 2306 3072 2169 3072 
Q 1681 3072 1420 2755 
Q 1159 2438 1159 1844 
L 1159 0 
L 581 0 
L 581 3500 
L 1159 3500 
L 1159 2956 
Q 1341 3275 1631 3429 
Q 1922 3584 2338 3584 
Q 2397 3584 2469 3576 
Q 2541 3569 2628 3553 
L 2631 2963 
z
" transform="scale(0.015625)"/>
      <path id="DejaVuSans-6f" d="M 1959 3097 
Q 1497 3097 1228 2736 
Q 959 2375 959 1747 
Q 959 1119 1226 758 
Q 1494 397 1959 397 
Q 2419 397 2687 759 
Q 2956 1122 2956 1747 
Q 2956 2369 2687 2733 
Q 2419 3097 1959 3097 
z
M 1959 3584 
Q 2709 3584 3137 3096 
Q 3566 2609 3566 1747 
Q 3566 888 3137 398 
Q 2709 -91 1959 -91 
Q 1206 -91 779 398 
Q 353 888 353 1747 
Q 353 2609 779 3096 
Q 1206 3584 1959 3584 
z
" transform="scale(0.015625)"/>
      <path id="DejaVuSans-6a" d="M 603 3500 
L 1178 3500 
L 1178 -63 
Q 1178 -731 923 -1031 
Q 669 -1331 103 -1331 
L -116 -1331 
L -116 -844 
L 38 -844 
Q 366 -844 484 -692 
Q 603 -541 603 -63 
L 603 3500 
z
M 603 4863 
L 1178 4863 
L 1178 4134 
L 603 4134 
L 603 4863 
z
" transform="scale(0.015625)"/>
      <path id="DejaVuSans-3d" d="M 678 2906 
L 4684 2906 
L 4684 2381 
L 678 2381 
L 678 2906 
z
M 678 1631 
L 4684 1631 
L 4684 1100 
L 678 1100 
L 678 1631 
z
" transform="scale(0.015625)"/>
      <path id="DejaVuSans-74" d="M 1172 4494 
L 1172 3500 
L 2356 3500 
L 2356 3053 
L 1172 3053 
L 1172 1153 
Q 1172 725 1289 603 
Q 1406 481 1766 481 
L 2356 481 
L 2356 0 
L 1766 0 
Q 1100 0 847 248 
Q 594 497 594 1153 
L 594 3053 
L 172 3053 
L 172 3500 
L 594 3500 
L 594 4494 
L 1172 4494 
z
" transform="scale(0.015625)"/>
      <path id="DejaVuSans-65" d="M 3597 1894 
L 3597 1613 
L 953 1613 
Q 991 1019 1311 708 
Q 1631 397 2203 397 
Q 2534 397 2845 478 
Q 3156 559 3463 722 
L 3463 178 
Q 3153 47 2828 -22 
Q 2503 -91 2169 -91 
Q 1331 -91 842 396 
Q 353 884 353 1716 
Q 353 2575 817 3079 
Q 1281 3584 2069 3584 
Q 2775 3584 3186 3129 
Q 3597 2675 3597 1894 
z
M 3022 2063 
Q 3016 2534 2758 2815 
Q 2500 3097 2075 3097 
Q 1594 3097 1305 2825 
Q 1016 2553 972 2059 
L 3022 2063 
z
" transform="scale(0.015625)"/>
      <path id="DejaVuSans-63" d="M 3122 3366 
L 3122 2828 
Q 2878 2963 2633 3030 
Q 2388 3097 2138 3097 
Q 1578 3097 1268 2742 
Q 959 2388 959 1747 
Q 959 1106 1268 751 
Q 1578 397 2138 397 
Q 2388 397 2633 464 
Q 2878 531 3122 666 
L 3122 134 
Q 2881 22 2623 -34 
Q 2366 -91 2075 -91 
Q 1284 -91 818 406 
Q 353 903 353 1747 
Q 353 2603 823 3093 
Q 1294 3584 2113 3584 
Q 2378 3584 2631 3529 
Q 2884 3475 3122 3366 
z
" transform="scale(0.015625)"/>
      <path id="DejaVuSans-6c" d="M 603 4863 
L 1178 4863 
L 1178 0 
L 603 0 
L 603 4863 
z
" transform="scale(0.015625)"/>
      <path id="DejaVuSans-61" d="M 2194 1759 
Q 1497 1759 1228 1600 
Q 959 1441 959 1056 
Q 959 750 1161 570 
Q 1363 391 1709 391 
Q 2188 391 2477 730 
Q 2766 1069 2766 1631 
L 2766 1759 
L 2194 1759 
z
M 3341 1997 
L 3341 0 
L 2766 0 
L 2766 531 
Q 2569 213 2275 61 
Q 1981 -91 1556 -91 
Q 1019 -91 701 211 
Q 384 513 384 1019 
Q 384 1609 779 1909 
Q 1175 2209 1959 2209 
L 2766 2209 
L 2766 2266 
Q 2766 2663 2505 2880 
Q 2244 3097 1772 3097 
Q 1472 3097 1187 3025 
Q 903 2953 641 2809 
L 641 3341 
Q 956 3463 1253 3523 
Q 1550 3584 1831 3584 
Q 2591 3584 2966 3190 
Q 3341 2797 3341 1997 
z
" transform="scale(0.015625)"/>
      <path id="DejaVuSans-5f" d="M 3263 -1063 
L 3263 -1509 
L -63 -1509 
L -63 -1063 
L 3263 -1063 
z
" transform="scale(0.015625)"/>
      <path id="DejaVuSans-6e" d="M 3513 2113 
L 3513 0 
L 2938 0 
L 2938 2094 
Q 2938 2591 2744 2837 
Q 2550 3084 2163 3084 
Q 1697 3084 1428 2787 
Q 1159 2491 1159 1978 
L 1159 0 
L 581 0 
L 581 3500 
L 1159 3500 
L 1159 2956 
Q 1366 3272 1645 3428 
Q 1925 3584 2291 3584 
Q 2894 3584 3203 3211 
Q 3513 2838 3513 2113 
z
" transform="scale(0.015625)"/>
      <path id="DejaVuSans-6b" d="M 581 4863 
L 1159 4863 
L 1159 1991 
L 2875 3500 
L 3609 3500 
L 1753 1863 
L 3688 0 
L 2938 0 
L 1159 1709 
L 1159 0 
L 581 0 
L 581 4863 
z
" transform="scale(0.015625)"/>
      <path id="DejaVuSans-78" d="M 3513 3500 
L 2247 1797 
L 3578 0 
L 2900 0 
L 1881 1375 
L 863 0 
L 184 0 
L 1544 1831 
L 300 3500 
L 978 3500 
L 1906 2253 
L 2834 3500 
L 3513 3500 
z
" transform="scale(0.015625)"/>
      <path id="DejaVuSans-79" d="M 2059 -325 
Q 1816 -950 1584 -1140 
Q 1353 -1331 966 -1331 
L 506 -1331 
L 506 -850 
L 844 -850 
Q 1081 -850 1212 -737 
Q 1344 -625 1503 -206 
L 1606 56 
L 191 3500 
L 800 3500 
L 1894 763 
L 2988 3500 
L 3597 3500 
L 2059 -325 
z
" transform="scale(0.015625)"/>
     </defs>
     <use xlink:href="#DejaVuSans-2b"/>
     <use xlink:href="#DejaVuSans-70" transform="translate(83.789062 0)"/>
     <use xlink:href="#DejaVuSans-72" transform="translate(147.265625 0)"/>
     <use xlink:href="#DejaVuSans-6f" transform="translate(186.128906 0)"/>
     <use xlink:href="#DejaVuSans-6a" transform="translate(247.310547 0)"/>
     <use xlink:href="#DejaVuSans-3d" transform="translate(275.09375 0)"/>
     <use xlink:href="#DejaVuSans-74" transform="translate(358.882812 0)"/>
     <use xlink:href="#DejaVuSans-6d" transform="translate(398.091797 0)"/>
     <use xlink:href="#DejaVuSans-65" transform="translate(495.503906 0)"/>
     <use xlink:href="#DejaVuSans-72" transform="translate(557.027344 0)"/>
     <use xlink:href="#DejaVuSans-63" transform="translate(595.890625 0)"/>
     <use xlink:href="#DejaVuSans-20" transform="translate(650.871094 0)"/>
     <use xlink:href="#DejaVuSans-2b" transform="translate(682.658203 0)"/>
     <use xlink:href="#DejaVuSans-6c" transform="translate(766.447266 0)"/>
     <use xlink:href="#DejaVuSans-61" transform="translate(794.230469 0)"/>
     <use xlink:href="#DejaVuSans-74" transform="translate(855.509766 0)"/>
     <use xlink:href="#DejaVuSans-5f" transform="translate(894.71875 0)"/>
     <use xlink:href="#DejaVuSans-30" transform="translate(944.71875 0)"/>
     <use xlink:href="#DejaVuSans-3d" transform="translate(1008.341797 0)"/>
     <use xlink:href="#DejaVuSans-30" transform="translate(1092.130859 0)"/>
     <use xlink:href="#DejaVuSans-2e" transform="translate(1155.753906 0)"/>
     <use xlink:href="#DejaVuSans-30" transform="translate(1187.541016 0)"/>
     <use xlink:href="#DejaVuSans-20" transform="translate(1251.164062 0)"/>
     <use xlink:href="#DejaVuSans-2b" transform="translate(1282.951172 0)"/>
     <use xlink:href="#DejaVuSans-6c" transform="translate(1366.740234 0)"/>
     <use xlink:href="#DejaVuSans-6f" transform="translate(1394.523438 0)"/>
     <use xlink:href="#DejaVuSans-6e" transform="translate(1455.705078 0)"/>
     <use xlink:href="#DejaVuSans-5f" transform="translate(1519.083984 0)"/>
     <use xlink:href="#DejaVuSans-30" transform="translate(1569.083984 0)"/>
     <use xlink:href="#DejaVuSans-3d" transform="translate(1632.707031 0)"/>
     <use xlink:href="#DejaVuSans-31" transform="translate(1716.496094 0)"/>
     <use xlink:href="#DejaVuSans-30" transform="translate(1780.119141 0)"/>
     <use xlink:href="#DejaVuSans-32" transform="translate(1843.742188 0)"/>
     <use xlink:href="#DejaVuSans-2e" transform="translate(1907.365234 0)"/>
     <use xlink:href="#DejaVuSans-39" transform="translate(1939.152344 0)"/>
     <use xlink:href="#DejaVuSans-20" transform="translate(2002.775391 0)"/>
     <use xlink:href="#DejaVuSans-2b" transform="translate(2034.5625 0)"/>
     <use xlink:href="#DejaVuSans-6b" transform="translate(2118.351562 0)"/>
     <use xlink:href="#DejaVuSans-5f" transform="translate(2176.261719 0)"/>
     <use xlink:href="#DejaVuSans-30" transform="translate(2226.261719 0)"/>
     <use xlink:href="#DejaVuSans-3d" transform="translate(2289.884766 0)"/>
     <use xlink:href="#DejaVuSans-31" transform="translate(2373.673828 0)"/>
     <use xlink:href="#DejaVuSans-2e" transform="translate(2437.296875 0)"/>
     <use xlink:href="#DejaVuSans-30" transform="translate(2469.083984 0)"/>
     <use xlink:href="#DejaVuSans-30" transform="translate(2532.707031 0)"/>
     <use xlink:href="#DejaVuSans-30" transform="translate(2596.330078 0)"/>
     <use xlink:href="#DejaVuSans-30" transform="translate(2659.953125 0)"/>
     <use xlink:href="#DejaVuSans-31" transform="translate(2723.576172 0)"/>
     <use xlink:href="#DejaVuSans-35" transform="translate(2787.199219 0)"/>
     <use xlink:href="#DejaVuSans-20" transform="translate(2850.822266 0)"/>
     <use xlink:href="#DejaVuSans-2b" transform="translate(2882.609375 0)"/>
     <use xlink:href="#DejaVuSans-78" transform="translate(2966.398438 0)"/>
     <use xlink:href="#DejaVuSans-5f" transform="translate(3025.578125 0)"/>
     <use xlink:href="#DejaVuSans-30" transform="translate(3075.578125 0)"/>
     <use xlink:href="#DejaVuSans-3d" transform="translate(3139.201172 0)"/>
     <use xlink:href="#DejaVuSans-34" transform="translate(3222.990234 0)"/>
     <use xlink:href="#DejaVuSans-30" transform="translate(3286.613281 0)"/>
     <use xlink:href="#DejaVuSans-30" transform="translate(3350.236328 0)"/>
     <use xlink:href="#DejaVuSans-30" transform="translate(3413.859375 0)"/>
     <use xlink:href="#DejaVuSans-20" transform="translate(3477.482422 0)"/>
     <use xlink:href="#DejaVuSans-2b" transform="translate(3509.269531 0)"/>
     <use xlink:href="#DejaVuSans-79" transform="translate(3593.058594 0)"/>
     <use xlink:href="#DejaVuSans-5f" transform="translate(3652.238281 0)"/>
     <use xlink:href="#DejaVuSans-30" transform="translate(3702.238281 0)"/>
     <use xlink:href="#DejaVuSans-3d" transform="translate(3765.861328 0)"/>
     <use xlink:href="#DejaVuSans-2d" transform="translate(3849.650391 0)"/>
     <use xlink:href="#DejaVuSans-31" transform="translate(3885.734375 0)"/>
     <use xlink:href="#DejaVuSans-39" transform="translate(3949.357422 0)"/>
     <use xlink:href="#DejaVuSans-30" transform="translate(4012.980469 0)"/>
     <use xlink:href="#DejaVuSans-35" transform="translate(4076.603516 0)"/>
     <use xlink:href="#DejaVuSans-30" transform="translate(4140.226562 0)"/>
     <use xlink:href="#DejaVuSans-30" transform="translate(4203.849609 0)"/>
     <use xlink:href="#DejaVuSans-30" transform="translate(4267.472656 0)"/>
    </g>
    <!-- +a=6378137.0 +b=6356752.3142 +units=m +no_defs +type=crs -->
    <g transform="translate(106.190859 54.48) scale(0.09 -0.09)">
     <defs>
      <path id="DejaVuSans-62" d="M 3116 1747 
Q 3116 2381 2855 2742 
Q 2594 3103 2138 3103 
Q 1681 3103 1420 2742 
Q 1159 2381 1159 1747 
Q 1159 1113 1420 752 
Q 1681 391 2138 391 
Q 2594 391 2855 752 
Q 3116 1113 3116 1747 
z
M 1159 2969 
Q 1341 3281 1617 3432 
Q 1894 3584 2278 3584 
Q 2916 3584 3314 3078 
Q 3713 2572 3713 1747 
Q 3713 922 3314 415 
Q 2916 -91 2278 -91 
Q 1894 -91 1617 61 
Q 1341 213 1159 525 
L 1159 0 
L 581 0 
L 581 4863 
L 1159 4863 
L 1159 2969 
z
" transform="scale(0.015625)"/>
      <path id="DejaVuSans-75" d="M 544 1381 
L 544 3500 
L 1119 3500 
L 1119 1403 
Q 1119 906 1312 657 
Q 1506 409 1894 409 
Q 2359 409 2629 706 
Q 2900 1003 2900 1516 
L 2900 3500 
L 3475 3500 
L 3475 0 
L 2900 0 
L 2900 538 
Q 2691 219 2414 64 
Q 2138 -91 1772 -91 
Q 1169 -91 856 284 
Q 544 659 544 1381 
z
M 1991 3584 
L 1991 3584 
z
" transform="scale(0.015625)"/>
      <path id="DejaVuSans-69" d="M 603 3500 
L 1178 3500 
L 1178 0 
L 603 0 
L 603 3500 
z
M 603 4863 
L 1178 4863 
L 1178 4134 
L 603 4134 
L 603 4863 
z
" transform="scale(0.015625)"/>
      <path id="DejaVuSans-73" d="M 2834 3397 
L 2834 2853 
Q 2591 2978 2328 3040 
Q 2066 3103 1784 3103 
Q 1356 3103 1142 2972 
Q 928 2841 928 2578 
Q 928 2378 1081 2264 
Q 1234 2150 1697 2047 
L 1894 2003 
Q 2506 1872 2764 1633 
Q 3022 1394 3022 966 
Q 3022 478 2636 193 
Q 2250 -91 1575 -91 
Q 1294 -91 989 -36 
Q 684 19 347 128 
L 347 722 
Q 666 556 975 473 
Q 1284 391 1588 391 
Q 1994 391 2212 530 
Q 2431 669 2431 922 
Q 2431 1156 2273 1281 
Q 2116 1406 1581 1522 
L 1381 1569 
Q 847 1681 609 1914 
Q 372 2147 372 2553 
Q 372 3047 722 3315 
Q 1072 3584 1716 3584 
Q 2034 3584 2315 3537 
Q 2597 3491 2834 3397 
z
" transform="scale(0.015625)"/>
      <path id="DejaVuSans-64" d="M 2906 2969 
L 2906 4863 
L 3481 4863 
L 3481 0 
L 2906 0 
L 2906 525 
Q 2725 213 2448 61 
Q 2172 -91 1784 -91 
Q 1150 -91 751 415 
Q 353 922 353 1747 
Q 353 2572 751 3078 
Q 1150 3584 1784 3584 
Q 2172 3584 2448 3432 
Q 2725 3281 2906 2969 
z
M 947 1747 
Q 947 1113 1208 752 
Q 1469 391 1925 391 
Q 2381 391 2643 752 
Q 2906 1113 2906 1747 
Q 2906 2381 2643 2742 
Q 2381 3103 1925 3103 
Q 1469 3103 1208 2742 
Q 947 2381 947 1747 
z
" transform="scale(0.015625)"/>
      <path id="DejaVuSans-66" d="M 2375 4863 
L 2375 4384 
L 1825 4384 
Q 1516 4384 1395 4259 
Q 1275 4134 1275 3809 
L 1275 3500 
L 2222 3500 
L 2222 3053 
L 1275 3053 
L 1275 0 
L 697 0 
L 697 3053 
L 147 3053 
L 147 3500 
L 697 3500 
L 697 3744 
Q 697 4328 969 4595 
Q 1241 4863 1831 4863 
L 2375 4863 
z
" transform="scale(0.015625)"/>
     </defs>
     <use xlink:href="#DejaVuSans-2b"/>
     <use xlink:href="#DejaVuSans-61" transform="translate(83.789062 0)"/>
     <use xlink:href="#DejaVuSans-3d" transform="translate(145.068359 0)"/>
     <use xlink:href="#DejaVuSans-36" transform="translate(228.857422 0)"/>
     <use xlink:href="#DejaVuSans-33" transform="translate(292.480469 0)"/>
     <use xlink:href="#DejaVuSans-37" transform="translate(356.103516 0)"/>
     <use xlink:href="#DejaVuSans-38" transform="translate(419.726562 0)"/>
     <use xlink:href="#DejaVuSans-31" transform="translate(483.349609 0)"/>
     <use xlink:href="#DejaVuSans-33" transform="translate(546.972656 0)"/>
     <use xlink:href="#DejaVuSans-37" transform="translate(610.595703 0)"/>
     <use xlink:href="#DejaVuSans-2e" transform="translate(674.21875 0)"/>
     <use xlink:href="#DejaVuSans-30" transform="translate(706.005859 0)"/>
     <use xlink:href="#DejaVuSans-20" transform="translate(769.628906 0)"/>
     <use xlink:href="#DejaVuSans-2b" transform="translate(801.416016 0)"/>
     <use xlink:href="#DejaVuSans-62" transform="translate(885.205078 0)"/>
     <use xlink:href="#DejaVuSans-3d" transform="translate(948.681641 0)"/>
     <use xlink:href="#DejaVuSans-36" transform="translate(1032.470703 0)"/>
     <use xlink:href="#DejaVuSans-33" transform="translate(1096.09375 0)"/>
     <use xlink:href="#DejaVuSans-35" transform="translate(1159.716797 0)"/>
     <use xlink:href="#DejaVuSans-36" transform="translate(1223.339844 0)"/>
     <use xlink:href="#DejaVuSans-37" transform="translate(1286.962891 0)"/>
     <use xlink:href="#DejaVuSans-35" transform="translate(1350.585938 0)"/>
     <use xlink:href="#DejaVuSans-32" transform="translate(1414.208984 0)"/>
     <use xlink:href="#DejaVuSans-2e" transform="translate(1477.832031 0)"/>
     <use xlink:href="#DejaVuSans-33" transform="translate(1509.619141 0)"/>
     <use xlink:href="#DejaVuSans-31" transform="translate(1573.242188 0)"/>
     <use xlink:href="#DejaVuSans-34" transform="translate(1636.865234 0)"/>
     <use xlink:href="#DejaVuSans-32" transform="translate(1700.488281 0)"/>
     <use xlink:href="#DejaVuSans-20" transform="translate(1764.111328 0)"/>
     <use xlink:href="#DejaVuSans-2b" transform="translate(1795.898438 0)"/>
     <use xlink:href="#DejaVuSans-75" transform="translate(1879.6875 0)"/>
     <use xlink:href="#DejaVuSans-6e" transform="translate(1943.066406 0)"/>
     <use xlink:href="#DejaVuSans-69" transform="translate(2006.445312 0)"/>
     <use xlink:href="#DejaVuSans-74" transform="translate(2034.228516 0)"/>
     <use xlink:href="#DejaVuSans-73" transform="translate(2073.4375 0)"/>
     <use xlink:href="#DejaVuSans-3d" transform="translate(2125.537109 0)"/>
     <use xlink:href="#DejaVuSans-6d" transform="translate(2209.326172 0)"/>
     <use xlink:href="#DejaVuSans-20" transform="translate(2306.738281 0)"/>
     <use xlink:href="#DejaVuSans-2b" transform="translate(2338.525391 0)"/>
     <use xlink:href="#DejaVuSans-6e" transform="translate(2422.314453 0)"/>
     <use xlink:href="#DejaVuSans-6f" transform="translate(2485.693359 0)"/>
     <use xlink:href="#DejaVuSans-5f" transform="translate(2546.875 0)"/>
     <use xlink:href="#DejaVuSans-64" transform="translate(2596.875 0)"/>
     <use xlink:href="#DejaVuSans-65" transform="translate(2660.351562 0)"/>
     <use xlink:href="#DejaVuSans-66" transform="translate(2721.875 0)"/>
     <use xlink:href="#DejaVuSans-73" transform="translate(2757.080078 0)"/>
     <use xlink:href="#DejaVuSans-20" transform="translate(2809.179688 0)"/>
     <use xlink:href="#DejaVuSans-2b" transform="translate(2840.966797 0)"/>
     <use xlink:href="#DejaVuSans-74" transform="translate(2924.755859 0)"/>
     <use xlink:href="#DejaVuSans-79" transform="translate(2963.964844 0)"/>
     <use xlink:href="#DejaVuSans-70" transform="translate(3023.144531 0)"/>
     <use xlink:href="#DejaVuSans-65" transform="translate(3086.621094 0)"/>
     <use xlink:href="#DejaVuSans-3d" transform="translate(3148.144531 0)"/>
     <use xlink:href="#DejaVuSans-63" transform="translate(3231.933594 0)"/>
     <use xlink:href="#DejaVuSans-72" transform="translate(3286.914062 0)"/>
     <use xlink:href="#DejaVuSans-73" transform="translate(3328.027344 0)"/>
    </g>
   </g>
  </g>
 </g>
 <defs>
  <clipPath id="p60bf482bdd">
   <rect x="103.068" y="60.48" width="310.464" height="388.08"/>
  </clipPath>
 </defs>
</svg>
